<svg xmlns="http://www.w3.org/2000/svg" height="402px" width="1531px" xml:space="preserve">
 <g id="commart-logo">
  <metadata id="commart-logo"/>
  <path fill="#999999" fill-rule="nonzero" d="M382 31l0 -22c0,-4 3,-7 7,-7 4,0 7,3 7,7l0 22c0,18 7,34 19,45 11,11 25,18 41,19 -2,-7 -4,-15 -4,-23l0 -25c0,-4 3,-7 7,-7 4,0 7,3 7,7l0 25c0,18 7,34 19,46 12,12 28,19 46,19 18,0 34,-7 46,-19 3,-3 6,-7 8,-10 -16,-4 -30,-12 -41,-24 -4,-5 -8,-10 -11,-15l-3 0c-18,0 -34,-7 -47,-17 -13,-11 -23,-26 -27,-43 -1,-4 1,-7 5,-8 4,-1 7,1 8,5 3,14 12,26 23,35 10,8 22,13 36,14 -2,-7 -3,-15 -3,-23l0 -22c0,-4 3,-7 7,-7 4,0 7,3 7,7l0 22c0,10 2,19 6,27l0 0c3,6 6,11 10,16 10,11 23,18 37,20 3,-7 4,-15 4,-23l0 -62c0,-4 3,-7 7,-7 4,0 7,3 7,7l0 62c0,21 -9,41 -23,55 -14,14 -34,23 -55,23l-58 0c-18,0 -34,7 -46,19 -12,12 -19,28 -19,46l0 25c0,4 -3,7 -7,7 -4,0 -7,-3 -7,-7l0 -25c0,-8 1,-16 3,-23 -8,-1 -15,-3 -22,-6 -10,-4 -19,-11 -26,-18 -3,-3 -2,-7 0,-10 3,-3 7,-2 10,0 3,3 6,6 9,8 10,-5 18,-13 23,-22 6,-10 10,-22 10,-34 0,-2 0,-4 0,-6 0,-4 2,-7 6,-7 4,0 7,2 7,6 0,2 0,5 0,7 0,15 -4,29 -12,41 -6,9 -13,17 -21,23 6,3 13,4 20,5 4,-7 9,-14 14,-19 14,-14 34,-23 55,-23l14 0c-4,-3 -8,-6 -11,-9 -5,-5 -10,-11 -14,-18l-2 0c-21,0 -41,-9 -55,-23 -14,-14 -23,-33 -23,-55z"/>
  <polygon fill="#56025D" points="221,108 362,299 414,295 438,111 "/>
  <polygon fill="#430047" points="362,299 283,367 174,214 175,214 221,108 "/>
  <polygon fill="#2E012E" points="414,295 362,299 283,367 327,362 "/>
  <path fill="#999999" fill-rule="nonzero" d="M212 31l0 -22c0,-4 3,-7 7,-7 4,0 7,3 7,7l0 22c0,21 -9,41 -23,55 -14,14 -33,23 -55,23l-2 0c-4,7 -8,13 -14,18 -3,3 -7,7 -11,9l14 0c21,0 41,9 55,23 6,6 10,12 14,19 2,0 3,0 5,-1 3,0 6,-1 9,-2 4,-1 7,1 8,5 1,4 -1,7 -5,8 -4,1 -7,2 -11,2l-1 0c2,7 3,15 3,23l0 25c0,4 -3,7 -7,7 -4,0 -7,-3 -7,-7l0 -25c0,-18 -7,-34 -19,-46 -12,-12 -28,-19 -46,-19l-58 0c-21,0 -41,-9 -55,-23 -14,-14 -23,-34 -23,-55l0 -62c0,-4 3,-7 7,-7 4,0 7,3 7,7l0 62c0,8 1,16 4,23 15,-2 28,-10 37,-20 10,-11 16,-26 16,-43l0 -22c0,-4 3,-7 7,-7 4,0 7,3 7,7l0 22c0,8 -1,16 -3,23 13,-1 26,-6 36,-14 11,-9 19,-21 23,-35 1,-4 5,-6 8,-5 4,1 6,5 5,8 -4,17 -14,32 -27,43 -13,10 -29,17 -47,17l-3 0c-3,6 -7,11 -11,15 -11,12 -25,20 -41,24 2,4 5,7 8,10 12,12 28,19 46,19 18,0 34,-7 46,-19 12,-12 19,-28 19,-46l0 -25c0,-4 3,-7 7,-7 4,0 7,3 7,7l0 25c0,8 -1,16 -4,23 16,-1 30,-8 41,-19 12,-12 19,-28 19,-45zm19 130c3,2 4,6 1,9 -2,3 -6,4 -9,1 -10,-7 -17,-17 -23,-28 -5,-11 -8,-22 -8,-35 0,-2 0,-5 0,-7 0,-4 4,-6 7,-6 4,0 6,4 6,7 0,2 0,4 0,6 0,10 2,20 7,29 4,9 11,17 19,23z"/>
  <path fill="gray" fill-rule="nonzero" d="M1388 270c-1,0 -4,0 -5,0l0 10 -5 0 0 -27c5,-1 13,-1 16,2 5,3 4,13 -2,15l6 10 -5 0 -5 -9zm-20 -17l5 0 0 27 -5 0 0 -27zm-11 24c0,-2 1,-3 3,-3 2,0 3,1 3,3 0,2 -1,3 -3,3 -2,0 -3,-1 -3,-3zm22 66l0 -18 -6 0 0 -7 7 0 1 -9 6 -1 0 10 9 0 0 7 -9 0 0 16c0,4 2,6 5,6 1,0 2,0 4,-1l0 6c-8,2 -17,1 -17,-9zm-34 -24l7 0 1 5c4,-3 8,-5 13,-5l0 7c-5,0 -8,1 -12,3l0 24 -8 0 0 -34zm-42 24c1,-11 12,-10 20,-10 0,-2 0,-5 -2,-7 -3,-2 -12,-1 -15,0l-1 -6c6,-1 17,-2 22,2 2,2 3,5 3,8l0 23 -7 0 -1 -4c-1,0 -22,13 -20,-6zm20 1l0 -7c-4,0 -12,0 -12,6 0,7 8,4 12,1zm-69 -42l8 0 0 51 -8 0 0 -51zm-62 17l8 0 0 34 -8 0 0 -34zm4 -6c-3,0 -5,-1 -5,-5 0,-3 2,-4 5,-4 3,0 5,1 5,4 0,3 -1,5 -5,5zm-41 23c0,-17 11,-20 24,-17l0 6c-10,-2 -16,-2 -16,10 0,12 7,12 16,10l0 6c-13,4 -24,-1 -24,-17zm-30 -17l7 0 0 5c1,0 7,-5 13,-5l0 7c-5,0 -8,1 -12,3l0 24 -8 0 0 -34zm-26 -1c12,0 14,10 13,20l-21 0c0,3 1,6 2,7 3,4 13,2 17,0l0 6c-34,12 -36,-33 -12,-33zm0 6c-6,0 -7,4 -7,9l14 0c0,-5 -1,-9 -6,-9zm-75 -5l7 0 0 4c2,-1 15,-10 19,0 2,-1 21,-13 21,5l0 25 -8 0c0,-4 1,-24 -1,-27 -2,-3 -8,0 -11,1l0 25 -8 0c0,-4 1,-24 -1,-27 -2,-3 -8,0 -11,2l0 25 -8 0 0 -34zm-90 28c7,0 8,-5 8,-11 0,-6 -1,-11 -8,-11 -7,0 -8,5 -8,11 0,6 1,11 8,11zm0 6c-11,0 -16,-7 -16,-18 0,-11 5,-18 16,-18 11,0 16,7 16,18 0,11 -5,18 -16,18zm-51 -18c0,-17 11,-20 24,-17l0 6c-10,-2 -16,-1 -16,10 0,12 7,12 16,10l0 6c-13,4 -24,-1 -24,-17zm-45 17c-3,0 -5,-2 -5,-5 0,-3 2,-5 5,-5 3,0 5,2 5,6 0,4 -4,13 -6,17l-3 -3 3 -9zm-41 -1l0 -6c4,1 17,4 17,-3 0,-8 -17,-1 -17,-15 0,-13 15,-11 23,-9l0 6c-4,-1 -15,-4 -15,3 0,2 1,3 2,3 6,3 15,1 15,12 0,13 -16,11 -25,9zm-21 -33l8 0 0 34 -8 0 0 -34zm4 -6c-3,0 -5,-1 -5,-5 0,-3 2,-4 5,-4 3,0 5,1 5,4 0,3 -1,5 -5,5zm-61 30l0 -18 -6 0 0 -7 7 0 1 -9 6 -1 0 10 9 0 0 7 -9 0 0 16c0,6 4,6 9,5l0 6c-8,2 -17,1 -17,-9zm-86 -41l8 0 0 20c7,-4 21,-9 21,5l0 25 -8 0 0 -23c0,-9 -9,-5 -13,-2l0 25 -8 0 0 -51zm-28 41l0 -18 -6 0 0 -7 7 0 1 -9 6 -1 0 10 9 0 0 7 -9 0 0 16c0,6 4,6 9,5l0 6c-8,2 -17,1 -17,-9zm609 7c-3,-4 -3,-11 1,-14 4,-3 12,-3 17,-4 0,-2 0,-5 -2,-7 -3,-2 -12,-1 -15,0l-1 -6c6,-1 17,-2 22,2 2,2 3,5 3,8l0 23 -7 0 -1 -4c-2,0 -11,9 -18,2zm17 -6l0 -7c-4,0 -12,0 -12,6 0,7 8,4 12,1zm-553 6c-3,-4 -3,-11 1,-14 4,-3 12,-3 17,-4 0,-2 0,-5 -2,-7 -3,-2 -12,-1 -15,0l-1 -6c6,-1 17,-2 22,2 2,2 3,5 3,8l0 23 -7 0 -1 -4c-2,0 -11,9 -18,2zm17 -6l0 -7c-4,0 -12,0 -12,6 0,7 8,4 12,1zm269 -25l7 0 0 4c2,-1 15,-10 19,0 2,-1 21,-13 21,5l0 25 -8 0c0,-4 1,-24 -1,-27 -2,-3 -8,0 -11,1l0 25 -8 0c0,-4 1,-24 -1,-27 -2,-3 -8,0 -11,2l0 25 -8 0 0 -34zm382 -162l0 130 -30 0 0 -130 -29 0 0 -25 88 0 0 25 -29 0zm-116 -26c23,0 45,9 45,35l0 18c0,15 -7,26 -21,32l0 0 26 70 -32 0 -22 -66 -10 0 0 66 -29 0 0 -156c14,0 29,0 43,0zm-14 64l16 0c7,0 12,-3 12,-10l0 -17c0,-8 -5,-11 -12,-11l-16 0 0 39zm-83 42l-12 -53 -12 53 24 0zm-22 -106l21 0 42 155 -30 0 -5 -24 -35 0 -5 24 -30 0 42 -155zm-218 0l28 0 0 155 -27 0 0 -96 -24 69 -15 0 -23 -65 0 93 -27 0 0 -155 29 0 29 84 30 -84zm-152 157c-24,0 -45,-10 -45,-37l0 -86c0,-27 21,-37 45,-37 24,0 45,10 45,37l0 86c0,27 -21,37 -45,37zm0 -27c9,0 15,-4 15,-13l0 -79c0,-9 -6,-13 -15,-13 -9,0 -15,4 -15,13l0 79c0,9 6,13 15,13zm-102 27c-25,0 -42,-13 -42,-40l0 -80c0,-26 17,-40 42,-40 25,0 42,13 42,40l0 13 -30 0 0 -13c0,-8 -4,-13 -12,-13 -8,0 -12,5 -12,13l0 80c0,7 4,13 12,13 8,0 12,-5 12,-13l0 -13 30 0 0 13c0,26 -17,40 -42,40zm752 -22c1,-1 2,-2 2,-4 0,-2 -1,-3 -2,-4 -2,-1 -6,-1 -8,-1l0 10c2,1 7,0 8,-1zm-365 -135l28 0 0 155 -27 0 0 -96 -24 69 -15 0 -23 -65 0 93 -27 0 0 -155 29 0 29 84 30 -84z"/>
 </g>
</svg>